<?xml version="1.0"?>
<svg xmlns="http://www.w3.org/2000/svg" xmlns:xlink="http://www.w3.org/1999/xlink" xmlns:svgjs="http://svgjs.com/svgjs" version="1.1" width="512" height="512" x="0" y="0" viewBox="0 0 24 24" style="enable-background:new 0 0 512 512" xml:space="preserve"><g><path xmlns="http://www.w3.org/2000/svg" d="m5.868 15.583a8.938 8.938 0 0 1 -2.793-7.761 9 9 0 1 1 14.857 7.941 5.741 5.741 0 0 0 -1.594 2.237h-3.338v-7.184a3 3 0 0 0 2-2.816 1 1 0 0 0 -2 0 1 1 0 0 1 -2 0 1 1 0 0 0 -2 0 3 3 0 0 0 2 2.816v7.184h-3.437a6.839 6.839 0 0 0 -1.695-2.417zm2.132 4.417v.31a3.694 3.694 0 0 0 3.69 3.69h.62a3.694 3.694 0 0 0 3.69-3.69v-.31z" fill="#c37b38" data-original="#000000"/></g></svg>
